<svg version="1.2" xmlns="http://www.w3.org/2000/svg" viewBox="0 0 400 400" width="400" height="400">
	<style>
		.s0 { fill: none;stroke: #ff7c00;stroke-linecap: round;stroke-linejoin: round;stroke-width: 14 } 
		.s1 { fill: #ff8300 } 
	</style>
	<g id="document">
	</g>
	<g>
		<g id="stage">
			<g id="layer1-1">
				<path id="Path-1" class="s0" d="m23.48 197.91c0-95.3 77.78-172.55 173.73-172.55 95.96 0 173.74 77.25 173.74 172.55 0 95.3-77.78 172.55-173.74 172.55-95.95 0-173.73-77.25-173.73-172.55z"/>
				<path id="EV" class="s1" aria-label="EV"  d="m42 172.4q0-12.6 6.5-21.3 6.5-8.8 17.8-14.4 11.3-5.7 26.4-8.2 15-2.6 32.2-2.6 8.1 0 15.9 0.2 7.8 0.1 14.1 0.4 6.5 0.4 11.1 0.8 4.7 0.4 6.8 0.9 2 0.6 3.2 1.2 1.2 0.7 1.9 1.5 0.6 0.9 0.8 2.1 0.2 1 0.2 2.5 0 1.3-0.3 2.9-0.3 1.5-0.9 2.9-0.7 1.3-1.6 2.3-0.9 0.9-2.2 0.9-0.8 0-1.8-0.7-0.9-0.8-2.7-2-1.7-1.1-4.8-2.4-2.9-1.3-7.9-2.5-5-1.2-12.5-1.9-7.3-0.8-17.8-0.8v68.7h41.9v9.4h-41.9v41.9q0 5 1.4 8.7 1.4 3.5 4 5.9 2.7 2.3 6.3 3.4 3.7 1.1 8.3 1.1 5.1 0 10.3-1.1 5.1-1.2 9.6-2.9 4.7-1.7 8.4-3.9 3.9-2.1 6.2-4.1l3.9 4.6q-2.5 2.1-6.7 5.9-4.3 3.6-10.4 7.1-6.1 3.6-14.3 6.2-8 2.6-18.3 2.6-3.5 0-7.9-0.3-4.4-0.4-9-1.5-4.6-1.2-9.2-3.3-4.4-2.3-8-5.9-3.4-3.7-5.6-8.9-2.1-5.4-2.1-12.8v-42.7h-15.8v-9.4h15.8v-67.4q-3.3 0.3-7.5 1.3-4.1 0.9-8.6 2.6-4.3 1.6-8.6 3.8-4.2 2.3-7.5 5.3-3.4 3-5.5 6.7-2 3.7-2 8 0 3.4 0.8 5.4 0.9 2.1 2 3.1 1.1 1 2.3 1.3 1.2 0.2 1.7 0.2 2.5 0 4.1-0.8 1.6-1 2.9-2 1.3-1 2.5-1.9 1.2-1 2.7-1 1.2 0 2.5 0.7 1.4 0.5 2.5 1.8 1.2 1.3 2 3.4 0.9 2.1 0.9 5.1 0 4.3-1.7 7.5-1.5 3.1-4 5.1-2.4 2-5.6 3.1-3.2 1-6.3 1-4.9 0-8.8-1.7-3.8-1.9-6.5-5-2.8-3.1-4.2-7.1-1.4-4.2-1.4-9zm227.8-10.7l27.2 87.5q3.7-10 7.7-22.2 4-12.3 7.4-24.9 3.4-12.6 5.6-24.5 2.2-11.9 2.2-21.2 0-7.1-0.9-11.8-0.9-4.7-2.1-7.8-1.1-3.2-2-5.2-0.9-2.1-0.9-3.8 0-2.2 1.1-3.7 1.2-1.6 2.9-2.7 1.7-1.1 3.8-1.5 2-0.5 3.8-0.5 4 0 6.8 1.2 2.8 1.3 3.9 4.4 0.5 1.6 0.8 3.5 0.3 1.7 0.4 3.4 0.2 1.6 0.2 3.1 0 1.4 0 2.2 0 4.5-1.4 12.4-1.4 7.8-3.8 17.6-2.4 9.9-5.5 21.1-3.1 11.3-6.5 22.7-3.3 11.4-6.7 22.3-3.4 10.9-6.5 20.2-3 9.3-5.4 16.2-2.3 7-3.7 10.4-0.9 2.5-2.3 4-1.3 1.5-3 2.3-1.7 0.8-3.8 1.1-2.1 0.2-4.3 0.2-4 0-6.5-0.8-2.6-0.9-4.2-2.2-1.5-1.3-2.2-2.8-0.7-1.5-1.1-2.6l-38.3-127.5q-1.1-3.6-2.3-6.1-1.1-2.6-2.8-4.2-1.6-1.6-3.9-2.3-2.4-0.8-5.8-0.8-2.8 0-6.6 1.5-3.7 1.4-7.1 4.3-3.4 2.8-5.7 7.1-2.3 4.1-2.3 9.7 0 3.4 0.8 5.5 0.9 2 2 3.1 1.1 0.9 2.2 1.3 1.3 0.2 1.8 0.2 2.5 0 4.1-0.9 1.6-0.9 2.9-1.9 1.3-1.1 2.5-1.9 1.2-1 2.7-1 1.2 0 2.5 0.6 1.4 0.6 2.5 1.9 1.2 1.3 2 3.4 0.8 2 0.8 5 0 4.3-1.6 7.4-1.5 3.1-4 5.3-2.4 2-5.7 3.1-3.1 0.9-6.2 0.9-4.9 0-8.7-1.8-3.7-1.8-6.4-4.9-2.5-3.1-3.9-7.2-1.3-4.2-1.3-8.9 0-11.1 4-19.4 4.1-8.3 10.7-13.9 6.7-5.6 15.2-8.2 8.5-2.8 17.4-2.8 10.1 0 16.6 3.3 6.4 3.2 10.4 8.4 4 5.1 6.3 11.5 2.4 6.3 4.2 12.6z"/>
			</g>
		</g>
	</g>
</svg>